# xmcd
# Track frame offsets:
# 150
# 12555
# 24137
# 35607
# 53162
# 65620
# 80295
# 88207
# 100147
# 113110
# 127195
# 136332
# 147727
# 158662
# 169192
# 181755
# 189690
# 204335
# 217797
# 227100
# 240282
# 255495
#
# Disc length: 3575 seconds
# Revision: 4
# Processed by: cddbd v1.5.2PL0 Copyright (c) Steve Scherf et al.
# Submitted via: VisiTrax 2.11.3.279 - For more info visit www.synapsa.com
#
DISCID=2b0df516
DTITLE=Johnny Cash - The Best Of Johnny Cash
DYEAR=1998
DGENRE=Country
TTITLE0=Johnny Cash - Ring Of Fire
TTITLE1=Johnny Cash - I Walk The Line
TTITLE2=Johnny Cash - A Thing Called Love
TTITLE3=Johnny Cash - Sunday Morning Coming Down
TTITLE4=Johnny Cash - Folsom Prison Blues
TTITLE5=Johnny Cash - Home Of The Blues
TTITLE6=Johnny Cash - Guess Things Happen That Way
TTITLE7=Johnny Cash - The Way Of A Woman In Love
TTITLE8=Johnny Cash - The Ballad Of Ira Hayes
TTITLE9=Johnny Cash - Tennessee Flat Top Box
TTITLE10=Johnny Cash - I Got Stripes
TTITLE11=Johnny Cash - Get Rhythm
TTITLE12=Johnny Cash - Cry! Cry! Cry!
TTITLE13=Johnny Cash - Hey Porter
TTITLE14=Johnny Cash With Roseanne Cash And The Everly Brothers - Ballad Of A T
TTITLE14=eenage Queen
TTITLE15=Johnny Cash - Five Feet High And Rising
TTITLE16=Johnny Cash - Long Black Veil
TTITLE17=Johnny Cash - I Still Miss Someone
TTITLE18=Johnny Cash - Blue Train
TTITLE19=Johnny Cash - (There'll Be) Peace In The Valley (For Me)
TTITLE20=Johnny Cash - The Night Hank Williams Came To Town
TTITLE21=Johnny Cash - Family Bible
EXTD=Spectrum Music
EXTT0=
EXTT1=
EXTT2=
EXTT3=
EXTT4=
EXTT5=
EXTT6=
EXTT7=
EXTT8=
EXTT9=
EXTT10=
EXTT11=
EXTT12=
EXTT13=
EXTT14=
EXTT15=
EXTT16=
EXTT17=
EXTT18=
EXTT19=
EXTT20=
EXTT21=
PLAYORDER=
